<svg width="131" height="62" viewBox="0 0 131 62" fill="none" xmlns="http://www.w3.org/2000/svg">
<path d="M122.974 35.185C122.974 31.6717 120.667 28.1583 116 28.1583H112.513C109.026 28.1583 105.487 30.4833 105.487 35.185H88.0513C88.0513 32.86 89.7948 31.6717 91.5897 31.6717H98.5641V28.1583C98.5641 23.4567 95.0769 21.1317 91.5897 21.1317H74.1538C70.6154 21.1317 67.1282 23.4567 67.1282 28.1583V31.6717H74.1538C76.4615 31.6717 77.641 33.4283 77.641 35.185H63.6923V0H60.1538C56.6154 0 53.1282 2.37667 53.1282 7.07833V45.7767H74.1025C77.5897 45.7767 81.0769 43.4517 81.0769 38.75H84.5641C84.5641 42.2633 86.923 45.7767 91.5897 45.7767H102.051C105.538 45.7767 109.077 43.4517 109.077 38.75H112.564V42.2633C112.564 45.7767 114.872 49.29 119.538 49.29H130.051V42.2633C130.051 38.6983 127.692 35.185 123.026 35.185H122.974ZM74.1538 42.2117H56.6666V7.07833C56.6666 4.70167 58.4102 3.565 60.1538 3.565V38.75H77.641C77.641 41.075 75.8974 42.2633 74.1538 42.2633V42.2117ZM84.5641 35.185H81.0769C81.0769 31.6717 78.7692 28.1583 74.1025 28.1583H70.5641C70.5641 25.8333 72.3077 24.645 74.1025 24.645H91.5384C93.2307 24.645 95.0256 25.8333 95.0256 28.1583H91.5384C88 28.1583 84.5128 30.4833 84.5128 35.185H84.5641ZM102.051 42.2117H91.5897C89.2307 42.2117 88.0513 40.455 88.0513 38.6983H105.487C105.487 41.075 103.795 42.2117 102 42.2117H102.051ZM119.487 45.725C117.179 45.725 116 43.9683 116 42.2117V35.1333H109.026C109.026 32.8083 110.718 31.62 112.513 31.62H116C118.308 31.62 119.487 33.3767 119.487 35.1333V45.725ZM126.513 45.725H122.974V38.6467C125.333 38.6467 126.513 40.4033 126.513 42.2117V45.725Z" fill="white"/>
<path d="M49.641 0H46.1539C42.6667 0 39.1282 2.37667 39.1282 7.07833V35.185H32.1026C32.1026 31.6717 29.7949 28.1583 25.1282 28.1583H21.641C18.1538 28.1583 14.6154 30.4833 14.6154 35.185H0V38.6983C0 42.16 2.30769 45.725 6.97436 45.725H11.1795H11.2821C14.7179 45.6217 18.1538 43.245 18.1538 38.6467H21.641V42.2117C21.641 45.725 23.9487 49.2383 28.6154 49.2383H32.1026C34.5641 49.1867 37.0256 47.9983 38.2564 45.725H42.6667V38.6983H49.641V0ZM11.8462 42.16H6.97436C4.66667 42.16 3.48718 40.455 3.48718 38.6467H14.6667C14.6667 40.7133 13.3333 41.9017 11.8462 42.16ZM28.6154 45.725C26.3077 45.725 25.1282 43.9683 25.1282 42.2117V35.1333H18.1538C18.1538 32.8083 19.8462 31.62 21.641 31.62H25.1282C27.4359 31.62 28.6154 33.3767 28.6154 35.1333V45.725ZM39.1282 42.2117H35.5897C35.5897 44.5367 33.8974 45.725 32.1026 45.725V38.6983H39.1282V42.2117ZM46.1539 35.185H42.6667V7.07833C42.6667 4.70167 44.359 3.565 46.1539 3.565V35.185Z" fill="white"/>
<path d="M4.25646 58.9517L1.8462 53.785H0.307739V61.7933H1.43594V56.7817C1.43594 56.265 1.43594 55.7483 1.33338 55.2317L3.69235 60.2433H4.66671L7.02569 55.2317C7.02569 55.7483 6.92312 56.265 6.92312 56.7817V61.7933H8.10261V53.785H6.61543L4.20517 58.9517H4.25646Z" fill="white"/>
<path d="M17.0257 60.605V58.0217C17.0257 57.35 16.8205 56.885 16.4616 56.575C16.1026 56.265 15.5385 56.11 14.8718 56.11C14.2052 56.11 14.1539 56.11 13.7949 56.2133C13.4872 56.265 13.1795 56.3683 12.9744 56.4717L12.8205 57.4017C13.077 57.2983 13.3334 57.195 13.6411 57.0917C13.9488 57.04 14.2564 56.9883 14.5641 56.9883C15.0257 56.9883 15.3334 57.0917 15.5385 57.2467C15.7436 57.4533 15.8462 57.7117 15.8462 58.125V58.6933H14.5129C13.7436 58.6933 13.1795 58.8483 12.8718 59.1583C12.5129 59.4683 12.359 59.8817 12.359 60.3467C12.359 60.8117 12.5129 61.225 12.8205 61.535C13.1282 61.7933 13.5898 61.9483 14.1539 61.9483C14.718 61.9483 15.077 61.845 15.4872 61.6383L15.9488 61.0183C15.9488 61.2767 16.0513 61.4833 16.2052 61.6383C16.359 61.845 16.6154 61.8967 16.9744 61.8967C17.3334 61.8967 17.4359 61.8967 17.6411 61.7933L17.7436 61.0183C17.6411 61.0183 17.5385 61.0183 17.4359 61.0183C17.1282 61.0183 17.0257 60.8633 17.0257 60.5533V60.605ZM14.5641 61.07C14.2052 61.07 13.9488 61.0183 13.7436 60.8633C13.5898 60.7083 13.4872 60.5017 13.4872 60.295C13.4872 60.0883 13.5898 59.8817 13.7436 59.7267C13.8975 59.5717 14.2052 59.52 14.5641 59.52H15.8462V60.6567C15.4872 60.915 15.0257 61.07 14.5129 61.07H14.5641Z" fill="white"/>
<path d="M18.6667 55.8517H19.5384L19.5897 53.0617H18.5641L18.6667 55.8517Z" fill="white"/>
<path d="M25.3333 60.605V58.0217C25.3333 57.35 25.1282 56.885 24.7692 56.575C24.4102 56.265 23.8461 56.11 23.1794 56.11C22.5128 56.11 22.4615 56.11 22.1025 56.2133C21.7948 56.265 21.4871 56.3683 21.282 56.4717L21.1282 57.4017C21.3846 57.2983 21.641 57.195 21.9487 57.0917C22.2564 57.04 22.5641 56.9883 22.8718 56.9883C23.3333 56.9883 23.641 57.0917 23.8461 57.2467C24.0512 57.4533 24.1538 57.7117 24.1538 58.125V58.6933H22.8205C22.0512 58.6933 21.4871 58.8483 21.1794 59.1583C20.8205 59.4683 20.6666 59.8817 20.6666 60.3467C20.6666 60.8117 20.8205 61.225 21.1282 61.535C21.4359 61.7933 21.8974 61.9483 22.4615 61.9483C23.0256 61.9483 23.3846 61.845 23.7948 61.6383L24.2564 61.0183C24.2564 61.2767 24.3589 61.4833 24.5128 61.6383C24.6666 61.845 24.923 61.8967 25.282 61.8967C25.641 61.8967 25.7435 61.8967 25.9487 61.7933L26.0512 61.0183C25.9487 61.0183 25.8461 61.0183 25.7435 61.0183C25.4359 61.0183 25.3333 60.8633 25.3333 60.5533V60.605ZM22.923 61.07C22.5641 61.07 22.3077 61.0183 22.1025 60.8633C21.9487 60.7083 21.8461 60.5017 21.8461 60.295C21.8461 60.0883 21.9487 59.8817 22.1025 59.7267C22.2564 59.5717 22.5641 59.52 22.923 59.52H24.2051V60.6567C23.8461 60.915 23.3846 61.07 22.8718 61.07H22.923Z" fill="white"/>
<path d="M29.9487 61.7933H31.1282V53.01L29.9487 53.165V61.7933Z" fill="white"/>
<path d="M38 56.11C37.4359 56.11 36.9743 56.265 36.5128 56.5233C36.1025 56.7817 35.7948 57.1433 35.5384 57.6083C35.3333 58.0733 35.1794 58.59 35.1794 59.21C35.1794 60.0883 35.4359 60.76 35.8974 61.2767C36.3589 61.7417 37.0769 62 38 62C38.923 62 38.7179 62 39.0256 61.8967C39.3333 61.7933 39.5897 61.7417 39.7948 61.6383L39.9487 60.7083C39.7435 60.8117 39.4871 60.915 39.1794 61.0183C38.8718 61.07 38.5641 61.1217 38.2564 61.1217C37.5897 61.1217 37.1282 60.9667 36.8205 60.605C36.5641 60.295 36.4102 59.83 36.3589 59.3133H40.1025C40.1025 59.055 40.1538 58.7967 40.1538 58.435C40.1538 57.7633 39.9487 57.195 39.5384 56.7817C39.1282 56.3683 38.6153 56.1617 37.8974 56.1617L38 56.11ZM36.7692 57.505C37.0256 57.1433 37.3846 56.9367 37.8461 56.9367C38.3077 56.9367 38.5641 57.04 38.7692 57.2983C38.9743 57.5567 39.1282 57.9183 39.1282 58.3833H36.4102C36.4615 58.0217 36.5641 57.7117 36.7692 57.4533V57.505Z" fill="white"/>
<path d="M50.8205 56.11C50.5128 56.11 50.2564 56.11 50 56.2133C49.7949 56.265 49.5898 56.3167 49.4359 56.42L48.9744 57.195C48.8718 56.9883 48.7693 56.7817 48.6154 56.6267C48.3077 56.3167 47.7949 56.11 47.2308 56.11C46.6667 56.11 46.3077 56.2133 45.8975 56.3683L45.4872 57.0917V56.1617C45.4359 56.1617 44.4103 56.3167 44.4103 56.3167V61.7933H45.5898V57.4533C45.9487 57.1433 46.359 56.9883 46.8205 56.9883C47.2821 56.9883 47.5385 57.0917 47.7436 57.35C47.9487 57.5567 48.0513 57.9183 48.0513 58.3317V61.7933H49.1795V58.0217C49.1795 57.815 49.1795 57.66 49.1795 57.505C49.3334 57.35 49.5385 57.195 49.7436 57.1433C49.9487 57.04 50.2052 57.04 50.4616 57.04C50.8718 57.04 51.1795 57.1433 51.3846 57.4017C51.5898 57.6083 51.6923 57.97 51.6923 58.3833V61.845H52.8205V58.0733C52.8205 57.4017 52.6667 56.9367 52.3077 56.6267C52 56.3167 51.4872 56.11 50.9231 56.11H50.8205Z" fill="white"/>
<path d="M66.5641 58.9517L64.1538 53.785H62.6666V61.7933H63.7948V56.7817C63.7948 56.265 63.7948 55.7483 63.6923 55.2317L66.0512 60.2433H67.0256L69.3846 55.2317C69.3846 55.7483 69.282 56.265 69.282 56.7817V61.7933H70.4615V53.785H68.9743L66.5641 58.9517Z" fill="white"/>
<path d="M79.3333 60.605V58.0217C79.3333 57.35 79.1282 56.885 78.7692 56.575C78.4102 56.265 77.8461 56.11 77.1794 56.11C76.5128 56.11 76.4615 56.11 76.1025 56.2133C75.7948 56.265 75.4871 56.3683 75.282 56.4717L75.1282 57.4017C75.3846 57.2983 75.641 57.195 75.9487 57.0917C76.2564 57.04 76.5641 56.9883 76.8717 56.9883C77.3333 56.9883 77.641 57.0917 77.8461 57.2467C78.0512 57.4533 78.1538 57.7117 78.1538 58.125V58.6933H76.8205C76.0512 58.6933 75.4871 58.8483 75.1794 59.1583C74.8205 59.4683 74.6666 59.8817 74.6666 60.3467C74.6666 60.8117 74.8205 61.225 75.1282 61.535C75.4359 61.7933 75.8974 61.9483 76.4615 61.9483C77.0256 61.9483 77.3846 61.845 77.7948 61.6383L78.2564 61.0183C78.2564 61.2767 78.3589 61.4833 78.5128 61.6383C78.6666 61.845 78.923 61.8967 79.282 61.8967C79.641 61.8967 79.7435 61.8967 79.9487 61.7933L80.0512 61.0183C79.9487 61.0183 79.8461 61.0183 79.7435 61.0183C79.4359 61.0183 79.3333 60.8633 79.3333 60.5533V60.605ZM76.8717 61.07C76.5128 61.07 76.2564 61.0183 76.0512 60.8633C75.8974 60.7083 75.7948 60.5017 75.7948 60.295C75.7948 60.0883 75.8974 59.8817 76.0512 59.7267C76.2051 59.5717 76.5128 59.52 76.8717 59.52H78.1538V60.6567C77.7948 60.915 77.3333 61.07 76.8205 61.07H76.8717Z" fill="white"/>
<path d="M85.4872 56.3683L85.0257 57.195V56.1617C84.9744 56.1617 83.9487 56.3167 83.9487 56.3167V61.7933H85.1282V57.66C85.3333 57.4533 85.5898 57.35 85.8975 57.2467C86.1539 57.1433 86.5128 57.0917 86.8718 57.0917V56.11C86.6667 56.11 86.4103 56.11 86.1539 56.2133C85.8975 56.2133 85.6923 56.3167 85.5385 56.42L85.4872 56.3683Z" fill="white"/>
<path d="M94.7692 60.605V58.0217C94.7692 57.35 94.5641 56.885 94.2051 56.575C93.8461 56.265 93.282 56.11 92.6154 56.11C91.9487 56.11 91.8974 56.11 91.5384 56.2133C91.2307 56.265 90.9231 56.3683 90.7179 56.4717L90.5641 57.4017C90.8205 57.2983 91.0769 57.195 91.3846 57.0917C91.6923 57.04 92 56.9883 92.3077 56.9883C92.7692 56.9883 93.0769 57.0917 93.282 57.2467C93.4872 57.4533 93.5897 57.7117 93.5897 58.125V58.6933H92.2564C91.4872 58.6933 90.9231 58.8483 90.6154 59.1583C90.2564 59.4683 90.1025 59.8817 90.1025 60.3467C90.1025 60.8117 90.2564 61.225 90.5641 61.535C90.8718 61.7933 91.3333 61.9483 91.8974 61.9483C92.4615 61.9483 92.8205 61.845 93.2307 61.6383L93.6923 61.0183C93.6923 61.2767 93.7948 61.4833 93.9487 61.6383C94.1025 61.845 94.3589 61.8967 94.7179 61.8967C95.0769 61.8967 95.1795 61.8967 95.3846 61.7933L95.4872 61.0183C95.3846 61.0183 95.282 61.0183 95.1795 61.0183C94.8718 61.0183 94.7692 60.8633 94.7692 60.5533V60.605ZM92.359 61.07C92 61.07 91.7436 61.0183 91.5384 60.8633C91.3846 60.7083 91.282 60.5017 91.282 60.295C91.282 60.0883 91.3846 59.8817 91.5384 59.7267C91.6923 59.5717 92 59.52 92.359 59.52H93.641V60.6567C93.282 60.915 92.8205 61.07 92.3077 61.07H92.359Z" fill="white"/>
<path d="M100.769 54.6633L99.641 54.8183V56.2133H98.6154V57.0917H99.641V60.2433C99.641 60.8117 99.7948 61.225 100.051 61.4833C100.308 61.7417 100.718 61.8967 101.282 61.8967C101.846 61.8967 101.744 61.8967 101.949 61.845C102.154 61.7933 102.359 61.7417 102.513 61.6383L102.667 60.7083C102.308 60.8633 102 60.9667 101.641 60.9667C101.282 60.9667 101.179 60.915 101.026 60.76C100.872 60.605 100.82 60.3983 100.82 60.0883V57.04H102.718V56.1617H100.82V54.6117L100.769 54.6633Z" fill="white"/>
<path d="M109.333 56.11C108.974 56.11 108.718 56.11 108.462 56.2133C108.205 56.265 108.051 56.3167 107.949 56.42L107.487 57.1433V56.2133V53.0617L106.308 53.2167V61.8967H107.487V57.5567C107.897 57.2467 108.308 57.0917 108.821 57.0917C109.333 57.0917 109.539 57.195 109.744 57.4533C109.949 57.66 110.051 58.0217 110.051 58.435V61.8967H111.18V58.125C111.18 57.4533 111.026 56.9883 110.667 56.6783C110.308 56.3683 109.846 56.1617 109.231 56.1617L109.333 56.11Z" fill="white"/>
<path d="M118.154 56.11C117.59 56.11 117.128 56.2133 116.667 56.4717C116.256 56.73 115.897 57.0917 115.692 57.5567C115.436 58.0217 115.333 58.5383 115.333 59.1583C115.333 60.0367 115.59 60.7083 116.103 61.225C116.615 61.7417 117.282 62 118.154 62C119.026 62 119.18 61.8967 119.641 61.6383C120.051 61.38 120.41 61.0183 120.615 60.5533C120.821 60.0883 120.974 59.5717 120.974 58.9517C120.974 58.0733 120.718 57.4017 120.205 56.885C119.692 56.3683 119.026 56.11 118.154 56.11ZM119.333 60.5017C119.026 60.8633 118.667 61.07 118.154 61.07C117.641 61.07 117.282 60.8633 116.974 60.5017C116.667 60.14 116.513 59.6233 116.513 59.0033C116.513 58.3833 116.667 57.9183 116.974 57.5567C117.282 57.195 117.641 56.9883 118.154 56.9883C118.667 56.9883 119.026 57.195 119.333 57.5567C119.641 57.9183 119.744 58.3833 119.744 59.0033C119.744 59.6233 119.59 60.14 119.333 60.5017Z" fill="white"/>
<path d="M127.949 56.11C127.59 56.11 127.282 56.11 127.077 56.2133C126.821 56.265 126.667 56.3683 126.513 56.42L126.103 57.1433V56.2133C126.051 56.2133 125.026 56.3683 125.026 56.3683V61.845H126.205V57.505C126.564 57.195 127.026 57.04 127.538 57.04C128.051 57.04 128.256 57.1433 128.513 57.4017C128.718 57.6083 128.821 57.97 128.821 58.3833V61.845H129.949V58.0733C129.949 57.4017 129.795 56.9367 129.436 56.6267C129.077 56.3167 128.615 56.11 128 56.11H127.949Z" fill="white"/>
</svg>
